<svg width="50" height="50" viewBox="0 0 50 50" fill="none" xmlns="http://www.w3.org/2000/svg">
<rect x="18.1645" y="2.84811" width="7.23063" height="21.0346" rx="3.61532" transform="rotate(-1.05785 18.1645 2.84811)" fill="url(#paint0_linear_2027_56)"/>
<rect x="31.5479" y="46.9305" width="7.23063" height="21.0346" rx="3.61532" transform="rotate(178.942 31.5479 46.9305)" fill="url(#paint1_linear_2027_56)"/>
<rect x="46.932" y="18.1876" width="7.23063" height="21.0346" rx="3.61532" transform="rotate(89.0056 46.932 18.1876)" fill="url(#paint2_linear_2027_56)"/>
<rect x="36.3068" y="8.14374" width="6.5733" height="6.5733" rx="3.28665" transform="rotate(89.0056 36.3068 8.14374)" fill="url(#paint3_linear_2027_56)"/>
<rect x="14.4294" y="14.0704" width="6.5733" height="6.5733" rx="3.28665" transform="rotate(89.0056 14.4294 14.0704)" fill="url(#paint4_linear_2027_56)"/>
<rect x="41.5959" y="29.3446" width="6.5733" height="6.5733" rx="3.28665" transform="rotate(89.0056 41.5959 29.3446)" fill="url(#paint5_linear_2027_56)"/>
<rect x="20.4146" y="33.9767" width="6.5733" height="6.5733" rx="3.28665" transform="rotate(89.0056 20.4146 33.9767)" fill="url(#paint6_linear_2027_56)"/>
<rect x="23.7471" y="23.9532" width="7.23063" height="21.0346" rx="3.61532" transform="rotate(89.0056 23.7471 23.9532)" fill="url(#paint7_linear_2027_56)"/>
<defs>
<linearGradient id="paint0_linear_2027_56" x1="21.7799" y1="2.84811" x2="21.7799" y2="23.8827" gradientUnits="userSpaceOnUse">
<stop stop-color="white"/>
<stop offset="1" stop-color="white"/>
</linearGradient>
<linearGradient id="paint1_linear_2027_56" x1="35.1632" y1="46.9305" x2="35.1632" y2="67.9651" gradientUnits="userSpaceOnUse">
<stop stop-color="white"/>
<stop offset="1" stop-color="white"/>
</linearGradient>
<linearGradient id="paint2_linear_2027_56" x1="50.5473" y1="18.1876" x2="50.5473" y2="39.2222" gradientUnits="userSpaceOnUse">
<stop stop-color="white"/>
<stop offset="1" stop-color="white"/>
</linearGradient>
<linearGradient id="paint3_linear_2027_56" x1="39.5934" y1="8.14374" x2="39.5934" y2="14.717" gradientUnits="userSpaceOnUse">
<stop stop-color="white"/>
<stop offset="1" stop-color="white"/>
</linearGradient>
<linearGradient id="paint4_linear_2027_56" x1="17.716" y1="14.0704" x2="17.716" y2="20.6437" gradientUnits="userSpaceOnUse">
<stop stop-color="white"/>
<stop offset="1" stop-color="white"/>
</linearGradient>
<linearGradient id="paint5_linear_2027_56" x1="44.8826" y1="29.3446" x2="44.8826" y2="35.9179" gradientUnits="userSpaceOnUse">
<stop stop-color="white"/>
<stop offset="1" stop-color="white"/>
</linearGradient>
<linearGradient id="paint6_linear_2027_56" x1="23.7012" y1="33.9767" x2="23.7012" y2="40.55" gradientUnits="userSpaceOnUse">
<stop stop-color="white"/>
<stop offset="1" stop-color="white"/>
</linearGradient>
<linearGradient id="paint7_linear_2027_56" x1="27.3624" y1="23.9532" x2="27.3624" y2="44.9878" gradientUnits="userSpaceOnUse">
<stop stop-color="white"/>
<stop offset="1" stop-color="white"/>
</linearGradient>
</defs>
</svg>
